<svg xmlns="http://www.w3.org/2000/svg" viewBox="0 0 24 24" fill="#cbd4e6"><path d="M20.317 4.369a19.791 19.791 0 0 0-4.885-1.515.074.074 0 0 0-.079.037 13.65 13.65 0 0 0-.623 1.288 18.27 18.27 0 0 0-5.487 0 12.02 12.02 0 0 0-.635-1.288.077.077 0 0 0-.079-.037 19.736 19.736 0 0 0-4.885 1.515.07.07 0 0 0-.032.027C.533 9.046-.32 13.58.099 18.061a.082.082 0 0 0 .031.056 19.9 19.9 0 0 0 5.993 3.03.078.078 0 0 0 .084-.027 14.087 14.087 0 0 0 1.216-1.975.076.076 0 0 0-.041-.105 12.993 12.993 0 0 1-1.859-.885.077.077 0 0 1-.008-.128c.125-.093.25-.19.37-.287a.074.074 0 0 1 .078-.01c3.9 1.785 8.13 1.785 12 0a.074.074 0 0 1 .079.01c.12.098.244.194.37.287a.077.077 0 0 1-.006.128 12.573 12.573 0 0 1-1.86.885.076.076 0 0 0-.04.106c.36.686.77 1.35 1.216 1.974a.077.077 0 0 0 .084.028 19.876 19.876 0 0 0 6.002-3.03.077.077 0 0 0 .03-.055c.5-5.177-.838-9.674-3.548-13.665a.061.061 0 0 0-.031-.028ZM8.02 15.33c-1.182 0-2.156-1.094-2.156-2.434 0-1.34.953-2.434 2.156-2.434 1.213 0 2.177 1.103 2.156 2.434 0 1.34-.953 2.434-2.156 2.434Zm7.974 0c-1.182 0-2.156-1.094-2.156-2.434 0-1.34.953-2.434 2.156-2.434 1.213 0 2.177 1.103 2.156 2.434 0 1.34-.943 2.434-2.156 2.434Z"/></svg>
